name rise43.5482peak65.4966fall89.1036.mot
datacolumns 19
datarows 27
range 16.16327000000000 16.20660100000000
endheader
time	ground_force1_vx	ground_force1_vy	ground_force1_vz	ground_force1_px	ground_force1_py	ground_force1_pz	ground_force2_vx	ground_force2_vy	ground_force2_vz	ground_force2_px	ground_force2_py	ground_force2_pz	ground_torque1_x	ground_torque1_y	ground_torque1_z	ground_torque2_x	ground_torque2_y	ground_torque2_z	
16.16327000000000	-51.37064700000000	820.89458300000001	52.46897400000000	0.08094900000000	0.00000000000000	0.11618000000000	0.00000000000000	0.00000000000000	0.00000000000000	0.00000000000000	0.00000000000000	0.00000000000000	0.00000000000000	18.35508000000000	0.00000000000000	0.00000000000000	0.00000000000000	0.00000000000000	
16.16493100000000	-51.96972100000000	820.93525899999997	52.66431200000000	0.08011300000000	0.00000000000000	0.11622900000000	0.00000000000000	0.00000000000000	0.00000000000000	0.00000000000000	0.00000000000000	0.00000000000000	0.00000000000000	18.37629800000000	0.00000000000000	0.00000000000000	0.00000000000000	0.00000000000000	
16.16659800000000	-52.58542300000000	820.86291600000004	52.85080500000000	0.07927700000000	0.00000000000000	0.11627700000000	0.00000000000000	0.00000000000000	0.00000000000000	0.00000000000000	0.00000000000000	0.00000000000000	0.00000000000000	18.39991400000000	0.00000000000000	0.00000000000000	0.00000000000000	0.00000000000000	
16.16826500000000	-53.21803800000000	820.67292699999996	53.02768900000000	0.07844100000000	0.00000000000000	0.11632600000000	0.00000000000000	0.00000000000000	0.00000000000000	0.00000000000000	0.00000000000000	0.00000000000000	0.00000000000000	18.42600400000000	0.00000000000000	0.00000000000000	0.00000000000000	0.00000000000000	
16.16994300000000	-53.86778800000000	820.36067600000001	53.19418000000000	0.07760500000000	0.00000000000000	0.11637300000000	0.00000000000000	0.00000000000000	0.00000000000000	0.00000000000000	0.00000000000000	0.00000000000000	0.00000000000000	18.45463100000000	0.00000000000000	0.00000000000000	0.00000000000000	0.00000000000000	
16.17159700000000	-54.53482600000000	819.92156699999998	53.34948200000000	0.07676800000000	0.00000000000000	0.11642100000000	0.00000000000000	0.00000000000000	0.00000000000000	0.00000000000000	0.00000000000000	0.00000000000000	0.00000000000000	18.48584800000000	0.00000000000000	0.00000000000000	0.00000000000000	0.00000000000000	
16.17327000000000	-55.21923500000000	819.35103000000004	53.49278200000000	0.07593100000000	0.00000000000000	0.11646800000000	0.00000000000000	0.00000000000000	0.00000000000000	0.00000000000000	0.00000000000000	0.00000000000000	0.00000000000000	18.51969600000000	0.00000000000000	0.00000000000000	0.00000000000000	0.00000000000000	
16.17494500000000	-55.92101900000000	818.64453000000003	53.62325700000000	0.07509200000000	0.00000000000000	0.11651400000000	0.00000000000000	0.00000000000000	0.00000000000000	0.00000000000000	0.00000000000000	0.00000000000000	0.00000000000000	18.55620100000000	0.00000000000000	0.00000000000000	0.00000000000000	0.00000000000000	
16.17659600000000	-56.64010300000000	817.79757300000006	53.74007600000000	0.07425300000000	0.00000000000000	0.11655900000000	0.00000000000000	0.00000000000000	0.00000000000000	0.00000000000000	0.00000000000000	0.00000000000000	0.00000000000000	18.59537700000000	0.00000000000000	0.00000000000000	0.00000000000000	0.00000000000000	
16.17826700000000	-57.37632900000000	816.80571299999997	53.84239700000000	0.07341200000000	0.00000000000000	0.11660300000000	0.00000000000000	0.00000000000000	0.00000000000000	0.00000000000000	0.00000000000000	0.00000000000000	0.00000000000000	18.63722100000000	0.00000000000000	0.00000000000000	0.00000000000000	0.00000000000000	
16.17994100000000	-58.12945000000000	815.66456100000005	53.92937400000000	0.07257100000000	0.00000000000000	0.11664700000000	0.00000000000000	0.00000000000000	0.00000000000000	0.00000000000000	0.00000000000000	0.00000000000000	0.00000000000000	18.68171800000000	0.00000000000000	0.00000000000000	0.00000000000000	0.00000000000000	
16.18160000000000	-58.89913100000000	814.36979399999996	54.00016000000000	0.07172700000000	0.00000000000000	0.11668900000000	-1.58659100000000	3.43324300000000	1.49811600000000	0.00000000000000	0.00000000000000	0.00000000000000	0.00000000000000	18.72883400000000	0.00000000000000	0.00000000000000	0.45518700000000	0.00000000000000	
16.18327100000000	-59.68494100000000	812.91715999999997	54.05390400000000	0.07088300000000	0.00000000000000	0.11673000000000	-2.53882300000000	6.73036300000000	2.53385700000000	0.00000000000000	0.00000000000000	0.00000000000000	0.00000000000000	18.77852200000000	0.00000000000000	0.00000000000000	0.77707400000000	0.00000000000000	
16.18494400000000	-60.48635600000000	811.30248800000004	54.08976100000000	0.07003700000000	0.00000000000000	0.11677000000000	-3.61588500000000	10.73089300000000	3.73430800000000	0.00000000000000	0.00000000000000	0.00000000000000	0.00000000000000	18.83071500000000	0.00000000000000	0.00000000000000	1.15148800000000	0.00000000000000	
16.18660100000000	-61.30275100000000	809.52169800000001	54.10688700000000	0.06919000000000	0.00000000000000	0.11680800000000	-4.78512400000000	15.39737000000000	5.07170900000000	0.00000000000000	0.00000000000000	0.00000000000000	0.00000000000000	18.88533100000000	0.00000000000000	0.00000000000000	1.57016800000000	0.00000000000000	
16.18826700000000	-62.13340400000000	807.57080699999995	54.10444900000000	0.06834100000000	0.00000000000000	0.11684400000000	-6.00571700000000	20.66198600000000	6.50904700000000	0.00000000000000	0.00000000000000	0.00000000000000	0.00000000000000	18.94227000000000	0.00000000000000	0.00000000000000	2.02196400000000	0.00000000000000	
16.18994500000000	-62.97749000000000	805.44593799999996	54.08162200000000	0.06749200000000	0.00000000000000	0.11687800000000	-7.23134900000000	26.43182100000000	8.00251400000000	0.28029700000000	0.00000000000000	-0.04223900000000	0.00000000000000	19.00141300000000	0.00000000000000	0.00000000000000	4.43121700000000	0.00000000000000	
16.19160300000000	-63.83408000000000	803.14333099999999	54.03759600000000	0.06664100000000	0.00000000000000	0.11691100000000	-8.41357600000000	32.59677800000000	9.50475700000000	0.28640700000000	0.00000000000000	-0.04333700000000	0.00000000000000	19.06262200000000	0.00000000000000	0.00000000000000	5.32818400000000	0.00000000000000	
16.19326400000000	-64.70214400000000	800.65935000000002	53.97157700000000	0.06578900000000	0.00000000000000	0.11694100000000	-9.50545800000000	39.03919000000000	10.96851000000000	0.29187200000000	0.00000000000000	-0.04433400000000	0.00000000000000	19.12574400000000	0.00000000000000	0.00000000000000	6.21843100000000	0.00000000000000	
16.19493600000000	-65.58054600000000	797.99049100000002	53.88279200000000	0.06493600000000	0.00000000000000	0.11696900000000	-10.46497100000000	45.64369900000000	12.35010100000000	0.29679400000000	0.00000000000000	-0.04524700000000	0.00000000000000	19.19060200000000	0.00000000000000	0.00000000000000	7.07569500000000	0.00000000000000	
16.19659900000000	-66.46804899999999	795.13339299999996	53.77049000000000	0.06408200000000	0.00000000000000	0.11699500000000	-11.25775200000000	52.30610600000000	13.61239100000000	0.30125500000000	0.00000000000000	-0.04608700000000	0.00000000000000	19.25700500000000	0.00000000000000	0.00000000000000	7.87699600000000	0.00000000000000	
16.19827100000000	-67.36330900000000	792.08484699999997	53.63394500000000	0.06322800000000	0.00000000000000	0.11701900000000	-11.85892100000000	58.94024000000000	14.72683700000000	0.30532100000000	0.00000000000000	-0.04686500000000	0.00000000000000	19.32474100000000	0.00000000000000	0.00000000000000	8.60399500000000	0.00000000000000	
16.19994000000000	-68.26488300000000	788.84180200000003	53.47246500000000	0.06237300000000	0.00000000000000	0.11703900000000	-12.25388400000000	65.48237100000000	15.67458000000000	0.30904500000000	0.00000000000000	-0.04758900000000	0.00000000000000	19.39357800000000	0.00000000000000	0.00000000000000	9.24378700000000	0.00000000000000	
16.20159800000000	-69.17122500000001	785.40137600000003	53.28538600000000	0.06151900000000	0.00000000000000	0.11705700000000	-12.43817500000000	71.89307800000000	16.44656200000000	0.31247100000000	0.00000000000000	-0.04826700000000	0.00000000000000	19.46326600000000	0.00000000000000	0.00000000000000	9.78913100000000	0.00000000000000	
16.20326300000000	-70.08069200000000	781.76086699999996	53.07208400000000	0.06066400000000	0.00000000000000	0.11707200000000	-12.41649700000000	78.15681499999999	17.04283800000000	0.31563600000000	0.00000000000000	-0.04890400000000	0.00000000000000	19.53353800000000	0.00000000000000	0.00000000000000	10.23817400000000	0.00000000000000	
16.20493700000000	-70.99154200000000	777.91775500000006	52.83197400000000	0.05981000000000	0.00000000000000	0.11708300000000	-12.20116800000000	84.27957600000001	17.47124400000000	0.31857100000000	0.00000000000000	-0.04950400000000	0.00000000000000	19.60410800000000	0.00000000000000	0.00000000000000	10.59378200000000	0.00000000000000	
16.20660100000000	-71.90194300000000	773.86971900000003	52.56451300000000	0.05895600000000	0.00000000000000	0.11709200000000	-11.81021200000000	90.28519600000000	17.74565900000000	0.32130100000000	0.00000000000000	-0.05007200000000	0.00000000000000	19.67467000000000	0.00000000000000	0.00000000000000	10.86260000000000	0.00000000000000	
